<svg width="59" height="62" viewBox="0 0 59 62" fill="none" xmlns="http://www.w3.org/2000/svg">
<mask id="mask0_2115_52" style="mask-type:luminance" maskUnits="userSpaceOnUse" x="29" y="26" width="30" height="36">
<path d="M29.5322 26.2134H58.4072V61.8853H29.5322V26.2134Z" fill="white"/>
</mask>
<g mask="url(#mask0_2115_52)">
<path d="M50.5895 59.1143V43.1038L29.6416 61.8851V52.0934L58.4072 26.3018V59.1143H50.5895Z" fill="#C78E66"/>
</g>
<mask id="mask1_2115_52" style="mask-type:luminance" maskUnits="userSpaceOnUse" x="29" y="11" width="30" height="37">
<path d="M29.5322 11.8853H58.4072V47.9321H29.5322V11.8853Z" fill="white"/>
</mask>
<g mask="url(#mask1_2115_52)">
<path d="M58.4072 21.6769L29.6416 47.854V38.0623L58.4072 11.8853V21.6769Z" fill="#826145"/>
</g>
<mask id="mask2_2115_52" style="mask-type:luminance" maskUnits="userSpaceOnUse" x="0" y="11" width="31" height="50">
<path d="M0.875977 11.8335H30.376V60.3335H0.875977V11.8335Z" fill="white"/>
</mask>
<g mask="url(#mask2_2115_52)">
<path d="M8.69369 59.1149V29.0732L29.6416 47.8545V38.0628L0.875977 12.2764V59.1149H8.69369Z" fill="#C78E66"/>
</g>
<mask id="mask3_2115_52" style="mask-type:luminance" maskUnits="userSpaceOnUse" x="11" y="35" width="19" height="27">
<path d="M11.5059 35.7603H29.6829V61.8853H11.5059V35.7603Z" fill="white"/>
</mask>
<g mask="url(#mask3_2115_52)">
<path d="M11.5527 45.6667V35.875L29.6413 52.0938V61.8854L11.5527 45.6667Z" fill="#826145"/>
</g>
<mask id="mask4_2115_52" style="mask-type:luminance" maskUnits="userSpaceOnUse" x="11" y="0" width="37" height="25">
<path d="M11.709 0.224121H47.3809V24.0054H11.709V0.224121Z" fill="white"/>
</mask>
<g mask="url(#mask4_2115_52)">
<path d="M23.2507 0.224121C23.8236 0.224121 24.3913 0.265789 24.9486 0.343913C25.5111 0.427246 26.0579 0.552246 26.5944 0.713704C27.1309 0.875163 27.6517 1.07308 28.1569 1.31266C28.6361 1.54183 29.0996 1.79704 29.5423 2.0887C29.985 1.79704 30.4486 1.54183 30.9277 1.31266C31.4329 1.07308 31.9538 0.875163 32.4902 0.713704C33.0215 0.552246 33.5736 0.427246 34.1361 0.343913C34.6934 0.265789 35.2611 0.224121 35.834 0.224121C37.3965 0.224121 38.8861 0.531414 40.2454 1.09391C41.6621 1.68246 42.9329 2.53662 43.9954 3.60433C45.0579 4.66683 45.9173 5.93766 46.5059 7.34912C47.0684 8.7085 47.3757 10.1981 47.3757 11.7658C47.3757 13.3283 47.0684 14.8179 46.5059 16.1772C45.9173 17.5887 45.0579 18.8647 43.9954 19.9272C42.9329 20.9897 41.6621 21.8491 40.2454 22.4325C38.8861 23.0002 37.3965 23.3075 35.834 23.3075C35.2611 23.3075 34.6934 23.2658 34.1361 23.1825C33.5736 23.1043 33.0215 22.9793 32.4902 22.8127C31.9538 22.6512 31.4329 22.4533 30.9277 22.2189C30.4486 21.9897 29.985 21.7293 29.5423 21.4429C29.0996 21.7293 28.6361 21.9897 28.1569 22.2189C27.6517 22.4533 27.1309 22.6512 26.5944 22.8127C26.0579 22.9793 25.5111 23.1043 24.9486 23.1825C24.3913 23.2658 23.8236 23.3075 23.2507 23.3075C21.6882 23.3075 20.1934 23.0002 18.8392 22.4325C17.4225 21.8491 16.1517 20.9897 15.0892 19.9272C14.0215 18.8647 13.1673 17.5887 12.5788 16.1772C12.0163 14.8179 11.709 13.3283 11.709 11.7658C11.709 10.1981 12.0163 8.7085 12.5788 7.34912C13.1673 5.93766 14.0215 4.66683 15.0892 3.60433C16.1517 2.53662 17.4225 1.68246 18.8392 1.09391C20.1934 0.531414 21.6882 0.224121 23.2507 0.224121ZM29.0788 2.896H30.0059C29.9642 2.86995 29.9277 2.84391 29.8913 2.81266C29.7767 2.72412 29.6569 2.646 29.5423 2.56266C29.4277 2.646 29.3079 2.72412 29.1934 2.81266C29.1517 2.84391 29.1204 2.86995 29.0788 2.896ZM30.4902 3.29183H28.5892C28.459 3.40641 28.3288 3.521 28.2038 3.63558C28.1413 3.69287 28.084 3.75537 28.0215 3.81266H31.0632C31.0007 3.75537 30.9434 3.69287 30.8809 3.63558C30.7507 3.521 30.6257 3.40641 30.4902 3.29183ZM31.4486 4.2085H27.6361C27.5371 4.31787 27.4329 4.43246 27.3392 4.54704C27.2871 4.60954 27.235 4.67204 27.1882 4.72933H31.8965C31.8496 4.67204 31.7975 4.60954 31.7454 4.54704C31.6517 4.43246 31.5475 4.31787 31.4486 4.2085ZM32.2038 5.12516H26.8809C26.7975 5.23454 26.7194 5.34391 26.6413 5.4585C26.5996 5.521 26.5579 5.5835 26.5163 5.646H32.5684C32.5267 5.5835 32.485 5.521 32.4434 5.4585C32.3652 5.34391 32.2871 5.23454 32.2038 5.12516ZM32.8184 6.04183H26.2663C26.2246 6.10954 26.1829 6.17725 26.1465 6.24495C26.0944 6.3335 26.0423 6.42204 26.0007 6.51579C25.9902 6.53141 25.985 6.54183 25.9694 6.56266H33.1152C33.0996 6.54183 33.0944 6.53141 33.084 6.51579C33.0371 6.42204 32.9902 6.3335 32.9382 6.24495C32.9017 6.17725 32.86 6.10954 32.8184 6.04183ZM33.3132 6.9585H25.7715C25.7246 7.06266 25.6777 7.16683 25.6309 7.271C25.5996 7.3387 25.5736 7.41162 25.5423 7.47933H33.5423C33.5111 7.41162 33.485 7.3387 33.4538 7.271C33.4069 7.16683 33.36 7.06266 33.3132 6.9585ZM33.6986 7.87516H25.3861C25.3444 7.97412 25.3132 8.07829 25.2767 8.17204C25.2507 8.25016 25.2298 8.32308 25.2038 8.396H33.8757C33.8548 8.32308 33.8288 8.25016 33.8079 8.17204C33.7715 8.07829 33.735 7.97412 33.6986 7.87516ZM33.9954 8.79183H25.084C25.0579 8.89079 25.0371 8.98454 25.0111 9.0835C24.9902 9.15641 24.9746 9.23454 24.959 9.31266H34.1257C34.11 9.23454 34.0892 9.15641 34.0736 9.0835C34.0475 8.98454 34.0267 8.89079 33.9954 8.79183ZM34.209 9.7085H24.8757C24.8548 9.80225 24.8392 9.896 24.8236 9.98975C24.8132 10.0627 24.8027 10.146 24.7923 10.2293H34.2923C34.2819 10.146 34.2715 10.0627 34.2559 9.98975C34.2402 9.896 34.2246 9.80225 34.209 9.7085ZM34.3392 10.6252H24.7454C24.7246 10.797 24.7142 10.9637 24.7038 11.1356V11.146H34.3809C34.3757 11.0627 34.3704 10.9793 34.36 10.896C34.3548 10.8022 34.3444 10.7137 34.3392 10.6252ZM24.6882 11.5418C24.6882 11.62 24.6882 11.6929 24.6882 11.7658C24.6882 11.8647 24.6882 11.9637 24.6882 12.0627H34.3913C34.3913 12.0314 34.3913 12.0054 34.3913 11.9793C34.3965 11.922 34.3965 11.8543 34.3965 11.7658C34.3965 11.6825 34.3965 11.6252 34.3965 11.5887L34.3913 11.5418H24.6882ZM24.709 12.4585C24.7194 12.6304 24.735 12.8075 24.7507 12.9793H34.334C34.3444 12.8908 34.3496 12.8022 34.36 12.7085C34.3652 12.6252 34.3704 12.5418 34.3757 12.4585H24.709ZM34.2819 13.3752H24.8027C24.8132 13.4533 24.8236 13.5366 24.8392 13.6147C24.8548 13.7085 24.8704 13.8022 24.8861 13.896H34.1934C34.209 13.8022 34.2246 13.7085 34.2454 13.6147C34.2559 13.5366 34.2715 13.4533 34.2819 13.3752ZM34.11 14.2918H24.9746C24.9902 14.37 25.0111 14.4429 25.0319 14.521C25.0527 14.62 25.084 14.7189 25.11 14.8127H33.9746C34.0007 14.7189 34.0267 14.62 34.0527 14.521C34.0736 14.4429 34.0892 14.37 34.11 14.2918ZM33.8548 15.2085H25.2298C25.2507 15.2814 25.2767 15.3543 25.3027 15.4272C25.3392 15.5314 25.3757 15.6304 25.4121 15.7293H33.6725C33.709 15.6304 33.7454 15.5314 33.7819 15.4272C33.8079 15.3543 33.8288 15.2814 33.8548 15.2085ZM33.5111 16.1252H25.5736C25.5996 16.1929 25.6309 16.2658 25.6621 16.3335C25.709 16.4377 25.7559 16.5418 25.8079 16.646H33.2767C33.3236 16.5418 33.3704 16.4377 33.4173 16.3335C33.4486 16.2658 33.4798 16.1929 33.5111 16.1252ZM33.0736 17.0418H26.0111C26.0632 17.1356 26.1152 17.2293 26.1673 17.3231C26.2142 17.4012 26.2611 17.4845 26.3079 17.5575H32.7767C32.8236 17.4845 32.8704 17.4012 32.9173 17.3231C32.9694 17.2293 33.0215 17.1356 33.0736 17.0418ZM32.5163 17.9533H26.5632C26.61 18.021 26.6517 18.0835 26.6934 18.1512C26.7715 18.2606 26.8496 18.3647 26.9329 18.4741H32.1517C32.2298 18.3647 32.3132 18.2606 32.3913 18.1512C32.4329 18.0835 32.4746 18.021 32.5163 17.9533ZM31.834 18.8752H27.2454C27.2975 18.9325 27.3496 18.995 27.4017 19.0522C27.5007 19.172 27.5996 19.2814 27.7038 19.396H31.3757C31.485 19.2814 31.584 19.172 31.6829 19.0522C31.735 18.995 31.7871 18.9325 31.834 18.8752ZM30.985 19.7918H28.0996C28.1621 19.8491 28.2246 19.9064 28.2819 19.9637C28.4121 20.0887 28.5423 20.1981 28.6777 20.3127H30.4069C30.5371 20.1981 30.6725 20.0887 30.7975 19.9637C30.86 19.9064 30.9225 19.8491 30.985 19.7918ZM29.9069 20.7085H29.1777C29.1986 20.7241 29.2194 20.7397 29.2402 20.7554C29.3392 20.8283 29.4434 20.896 29.5423 20.9689C29.6413 20.896 29.7454 20.8283 29.8444 20.7554C29.8652 20.7397 29.8861 20.7241 29.9069 20.7085ZM29.8965 2.32829C30.6048 2.82829 31.2559 3.40641 31.834 4.04704C32.4538 4.73454 32.9902 5.50016 33.4329 6.32829C33.8757 7.1512 34.2194 8.03141 34.4486 8.9585C34.6725 9.85433 34.7923 10.797 34.7923 11.7658C34.7923 12.7293 34.6725 13.672 34.4486 14.5731C34.2194 15.5002 33.8757 16.3804 33.4329 17.2033C32.9902 18.0314 32.4538 18.7918 31.834 19.4793C31.2559 20.1252 30.6048 20.6981 29.8965 21.1981C30.2923 21.4481 30.6986 21.672 31.1204 21.87C31.5944 22.0887 32.0892 22.2814 32.5996 22.4325C33.1204 22.5939 33.6517 22.7085 34.1934 22.7918C34.7298 22.87 35.2767 22.9116 35.834 22.9116C37.3444 22.9116 38.7819 22.6147 40.0944 22.0679C41.4642 21.5054 42.6882 20.6772 43.7142 19.646C44.7454 18.62 45.5736 17.3908 46.1361 16.0262C46.6829 14.7137 46.9798 13.2762 46.9798 11.7658C46.9798 10.2554 46.6829 8.81266 46.1361 7.50537C45.5736 6.13558 44.7454 4.91162 43.7142 3.88037C42.6882 2.85433 41.4642 2.0262 40.0944 1.4637C38.7819 0.91683 37.3444 0.619954 35.834 0.619954C35.2767 0.619954 34.7298 0.661621 34.1934 0.739746C33.6517 0.81787 33.1204 0.937663 32.5996 1.09391C32.0892 1.25016 31.5944 1.44287 31.1204 1.66162C30.6986 1.85433 30.2923 2.07829 29.8965 2.32829ZM29.1829 21.1981C28.4798 20.6981 27.8288 20.1252 27.2507 19.4793C26.6309 18.7918 26.0892 18.0314 25.6465 17.2033C25.209 16.3804 24.8652 15.5002 24.6361 14.5731C24.4121 13.672 24.2923 12.7293 24.2923 11.7658C24.2923 10.797 24.4121 9.85433 24.6361 8.9585C24.8652 8.03141 25.209 7.1512 25.6465 6.32829C26.0892 5.50016 26.6309 4.73454 27.2507 4.04704C27.8288 3.40641 28.4798 2.82829 29.1829 2.32829C28.7923 2.07829 28.3861 1.85433 27.9642 1.66162C27.4902 1.44287 26.9954 1.25016 26.485 1.09391C25.9642 0.937663 25.4329 0.81787 24.8861 0.739746C24.3548 0.661621 23.8027 0.619954 23.2507 0.619954C21.7402 0.619954 20.3027 0.91683 18.9902 1.4637C17.6204 2.0262 16.3965 2.85433 15.3652 3.88037C14.3392 4.91162 13.5111 6.13558 12.9486 7.50537C12.4017 8.81266 12.1048 10.2554 12.1048 11.7658C12.1048 13.2762 12.4017 14.7137 12.9486 16.0262C13.5111 17.3908 14.3392 18.62 15.3652 19.646C16.3965 20.6772 17.6204 21.5054 18.9902 22.0679C20.3027 22.6147 21.7402 22.9116 23.2507 22.9116C23.8027 22.9116 24.3548 22.87 24.8861 22.7918C25.4329 22.7085 25.9642 22.5939 26.485 22.4325C26.9954 22.2814 27.4902 22.0887 27.9642 21.87C28.3861 21.672 28.7923 21.4481 29.1829 21.1981Z" fill="#C78E66"/>
</g>
</svg>
