<svg width="296" height="62" viewBox="0 0 296 62" fill="none" xmlns="http://www.w3.org/2000/svg">
<mask id="mask0_2109_52" style="mask-type:luminance" maskUnits="userSpaceOnUse" x="104" y="26" width="30" height="36">
<path d="M104.823 26.2134H133.698V61.8853H104.823V26.2134Z" fill="white"/>
</mask>
<g mask="url(#mask0_2109_52)">
<path d="M125.881 59.1143V43.1038L104.933 61.8851V52.0934L133.698 26.3018V59.1143H125.881Z" fill="#C78E66"/>
</g>
<mask id="mask1_2109_52" style="mask-type:luminance" maskUnits="userSpaceOnUse" x="104" y="11" width="30" height="37">
<path d="M104.823 11.8853H133.698V47.9321H104.823V11.8853Z" fill="white"/>
</mask>
<g mask="url(#mask1_2109_52)">
<path d="M133.698 21.6769L104.933 47.854V38.0623L133.698 11.8853V21.6769Z" fill="#826145"/>
</g>
<mask id="mask2_2109_52" style="mask-type:luminance" maskUnits="userSpaceOnUse" x="76" y="11" width="30" height="50">
<path d="M76.167 11.8335H105.667V60.3335H76.167V11.8335Z" fill="white"/>
</mask>
<g mask="url(#mask2_2109_52)">
<path d="M83.9847 59.1149V29.0732L104.933 47.8545V38.0628L76.167 12.2764V59.1149H83.9847Z" fill="#C78E66"/>
</g>
<mask id="mask3_2109_52" style="mask-type:luminance" maskUnits="userSpaceOnUse" x="86" y="35" width="19" height="27">
<path d="M86.7969 35.7603H104.974V61.8853H86.7969V35.7603Z" fill="white"/>
</mask>
<g mask="url(#mask3_2109_52)">
<path d="M86.8438 45.6667V35.875L104.932 52.0938V61.8854L86.8438 45.6667Z" fill="#826145"/>
</g>
<path d="M6.95768 52.6063H27.916V57.4813H0.291016V53.0438L21.1243 19.3771H0.541016V14.5229H27.791V18.9604L6.95768 52.6063Z" fill="#C78E66"/>
<path d="M42.5202 14.5229V41.6896C42.5202 45.523 43.4473 48.3667 45.3118 50.2105C47.1868 52.0594 49.791 52.9813 53.1243 52.9813C56.416 52.9813 58.9889 52.0594 60.8535 50.2105C62.7285 48.3667 63.666 45.523 63.666 41.6896V14.5229H69.2702V41.648C69.2702 45.2209 68.5462 48.2261 67.1035 50.6688C65.6712 53.1167 63.7337 54.9344 61.291 56.1271C58.8431 57.325 56.1035 57.9188 53.0618 57.9188C50.0202 57.9188 47.2754 57.325 44.8327 56.1271C42.3848 54.9344 40.4577 53.1167 39.041 50.6688C37.6243 48.2261 36.916 45.2209 36.916 41.648V14.5229H42.5202Z" fill="#C78E66"/>
<path d="M146.767 19.0854V33.4396H162.434V38.0646H146.767V52.8563H164.267V57.4813H141.163V14.4604H164.267V19.0854H146.767Z" fill="#C78E66"/>
<path d="M200.707 14.5229V19.0854H188.999V57.4813H183.395V19.0854H171.624V14.5229H200.707Z" fill="#C78E66"/>
<path d="M231.728 57.4813L221.498 39.9188H214.707V57.4813H209.103V14.5229H222.978C226.212 14.5229 228.946 15.0802 231.186 16.1896C233.436 17.2886 235.113 18.7886 236.228 20.6896C237.337 22.5802 237.894 24.7313 237.894 27.1479C237.894 30.1063 237.04 32.7209 235.332 34.9813C233.623 37.2469 231.066 38.7469 227.665 39.4813L238.436 57.4813H231.728ZM214.707 35.4188H222.978C226.019 35.4188 228.295 34.6688 229.811 33.1688C231.337 31.6688 232.103 29.6636 232.103 27.1479C232.103 24.6063 231.353 22.6427 229.853 21.2521C228.353 19.8511 226.061 19.1479 222.978 19.1479H214.707V35.4188Z" fill="#C78E66"/>
<path d="M253.671 14.5229V57.4813H248.066V14.5229H253.671Z" fill="#C78E66"/>
<path d="M282.275 36.0229L295.463 57.4813H289.129L278.817 40.7104L269.025 57.4813H262.796L275.921 36.0229L262.733 14.5229H269.025L279.379 31.3354L289.254 14.5229H295.525L282.275 36.0229Z" fill="#C78E66"/>
<mask id="mask4_2109_52" style="mask-type:luminance" maskUnits="userSpaceOnUse" x="87" y="0" width="36" height="25">
<path d="M87 0.224121H122.672V24.0054H87V0.224121Z" fill="white"/>
</mask>
<g mask="url(#mask4_2109_52)">
<path d="M98.5417 0.224121C99.1146 0.224121 99.6823 0.265789 100.24 0.343913C100.802 0.427246 101.349 0.552246 101.885 0.713704C102.422 0.875163 102.943 1.07308 103.448 1.31266C103.927 1.54183 104.391 1.79704 104.833 2.0887C105.276 1.79704 105.74 1.54183 106.219 1.31266C106.724 1.07308 107.245 0.875163 107.781 0.713704C108.312 0.552246 108.865 0.427246 109.427 0.343913C109.984 0.265789 110.552 0.224121 111.125 0.224121C112.688 0.224121 114.177 0.531414 115.536 1.09391C116.953 1.68246 118.224 2.53662 119.286 3.60433C120.349 4.66683 121.208 5.93766 121.797 7.34912C122.359 8.7085 122.667 10.1981 122.667 11.7658C122.667 13.3283 122.359 14.8179 121.797 16.1772C121.208 17.5887 120.349 18.8647 119.286 19.9272C118.224 20.9897 116.953 21.8491 115.536 22.4325C114.177 23.0002 112.688 23.3075 111.125 23.3075C110.552 23.3075 109.984 23.2658 109.427 23.1825C108.865 23.1043 108.312 22.9793 107.781 22.8127C107.245 22.6512 106.724 22.4533 106.219 22.2189C105.74 21.9897 105.276 21.7293 104.833 21.4429C104.391 21.7293 103.927 21.9897 103.448 22.2189C102.943 22.4533 102.422 22.6512 101.885 22.8127C101.349 22.9793 100.802 23.1043 100.24 23.1825C99.6823 23.2658 99.1146 23.3075 98.5417 23.3075C96.9792 23.3075 95.4844 23.0002 94.1302 22.4325C92.7135 21.8491 91.4427 20.9897 90.3802 19.9272C89.3125 18.8647 88.4583 17.5887 87.8698 16.1772C87.3073 14.8179 87 13.3283 87 11.7658C87 10.1981 87.3073 8.7085 87.8698 7.34912C88.4583 5.93766 89.3125 4.66683 90.3802 3.60433C91.4427 2.53662 92.7135 1.68246 94.1302 1.09391C95.4844 0.531414 96.9792 0.224121 98.5417 0.224121ZM104.37 2.896H105.297C105.255 2.86995 105.219 2.84391 105.182 2.81266C105.068 2.72412 104.948 2.646 104.833 2.56266C104.719 2.646 104.599 2.72412 104.484 2.81266C104.443 2.84391 104.411 2.86995 104.37 2.896ZM105.781 3.29183H103.88C103.75 3.40641 103.62 3.521 103.495 3.63558C103.432 3.69287 103.375 3.75537 103.313 3.81266H106.354C106.292 3.75537 106.234 3.69287 106.172 3.63558C106.042 3.521 105.917 3.40641 105.781 3.29183ZM106.74 4.2085H102.927C102.828 4.31787 102.724 4.43246 102.63 4.54704C102.578 4.60954 102.526 4.67204 102.479 4.72933H107.188C107.141 4.67204 107.089 4.60954 107.036 4.54704C106.943 4.43246 106.839 4.31787 106.74 4.2085ZM107.495 5.12516H102.172C102.089 5.23454 102.01 5.34391 101.932 5.4585C101.891 5.521 101.849 5.5835 101.807 5.646H107.859C107.818 5.5835 107.776 5.521 107.734 5.4585C107.656 5.34391 107.578 5.23454 107.495 5.12516ZM108.109 6.04183H101.557C101.516 6.10954 101.474 6.17725 101.438 6.24495C101.385 6.3335 101.333 6.42204 101.292 6.51579C101.281 6.53141 101.276 6.54183 101.26 6.56266H108.406C108.391 6.54183 108.385 6.53141 108.375 6.51579C108.328 6.42204 108.281 6.3335 108.229 6.24495C108.193 6.17725 108.151 6.10954 108.109 6.04183ZM108.604 6.9585H101.063C101.016 7.06266 100.969 7.16683 100.922 7.271C100.891 7.3387 100.865 7.41162 100.833 7.47933H108.833C108.802 7.41162 108.776 7.3387 108.745 7.271C108.698 7.16683 108.651 7.06266 108.604 6.9585ZM108.99 7.87516H100.677C100.635 7.97412 100.604 8.07829 100.568 8.17204C100.542 8.25016 100.521 8.32308 100.495 8.396H109.167C109.146 8.32308 109.12 8.25016 109.099 8.17204C109.063 8.07829 109.026 7.97412 108.99 7.87516ZM109.286 8.79183H100.375C100.349 8.89079 100.328 8.98454 100.302 9.0835C100.281 9.15641 100.266 9.23454 100.25 9.31266H109.417C109.401 9.23454 109.38 9.15641 109.365 9.0835C109.339 8.98454 109.318 8.89079 109.286 8.79183ZM109.5 9.7085H100.167C100.146 9.80225 100.13 9.896 100.115 9.98975C100.104 10.0627 100.094 10.146 100.083 10.2293H109.583C109.573 10.146 109.563 10.0627 109.547 9.98975C109.531 9.896 109.516 9.80225 109.5 9.7085ZM109.63 10.6252H100.036C100.016 10.797 100.005 10.9637 99.9948 11.1356V11.146H109.672C109.667 11.0627 109.661 10.9793 109.651 10.896C109.646 10.8022 109.635 10.7137 109.63 10.6252ZM99.9792 11.5418C99.9792 11.62 99.9792 11.6929 99.9792 11.7658C99.9792 11.8647 99.9792 11.9637 99.9792 12.0627H109.682C109.682 12.0314 109.682 12.0054 109.682 11.9793C109.688 11.922 109.688 11.8543 109.688 11.7658C109.688 11.6825 109.688 11.6252 109.688 11.5887L109.682 11.5418H99.9792ZM100 12.4585C100.01 12.6304 100.026 12.8075 100.042 12.9793H109.625C109.635 12.8908 109.641 12.8022 109.651 12.7085C109.656 12.6252 109.661 12.5418 109.667 12.4585H100ZM109.573 13.3752H100.094C100.104 13.4533 100.115 13.5366 100.13 13.6147C100.146 13.7085 100.161 13.8022 100.177 13.896H109.484C109.5 13.8022 109.516 13.7085 109.536 13.6147C109.547 13.5366 109.563 13.4533 109.573 13.3752ZM109.401 14.2918H100.266C100.281 14.37 100.302 14.4429 100.323 14.521C100.344 14.62 100.375 14.7189 100.401 14.8127H109.266C109.292 14.7189 109.318 14.62 109.344 14.521C109.365 14.4429 109.38 14.37 109.401 14.2918ZM109.146 15.2085H100.521C100.542 15.2814 100.568 15.3543 100.594 15.4272C100.63 15.5314 100.667 15.6304 100.703 15.7293H108.964C109 15.6304 109.036 15.5314 109.073 15.4272C109.099 15.3543 109.12 15.2814 109.146 15.2085ZM108.802 16.1252H100.865C100.891 16.1929 100.922 16.2658 100.953 16.3335C101 16.4377 101.047 16.5418 101.099 16.646H108.568C108.615 16.5418 108.661 16.4377 108.708 16.3335C108.74 16.2658 108.771 16.1929 108.802 16.1252ZM108.365 17.0418H101.302C101.354 17.1356 101.406 17.2293 101.458 17.3231C101.505 17.4012 101.552 17.4845 101.599 17.5575H108.068C108.115 17.4845 108.161 17.4012 108.208 17.3231C108.26 17.2293 108.312 17.1356 108.365 17.0418ZM107.807 17.9533H101.854C101.901 18.021 101.943 18.0835 101.984 18.1512C102.063 18.2606 102.141 18.3647 102.224 18.4741H107.443C107.521 18.3647 107.604 18.2606 107.682 18.1512C107.724 18.0835 107.766 18.021 107.807 17.9533ZM107.125 18.8752H102.536C102.589 18.9325 102.641 18.995 102.693 19.0522C102.792 19.172 102.891 19.2814 102.995 19.396H106.667C106.776 19.2814 106.875 19.172 106.974 19.0522C107.026 18.995 107.078 18.9325 107.125 18.8752ZM106.276 19.7918H103.391C103.453 19.8491 103.516 19.9064 103.573 19.9637C103.703 20.0887 103.833 20.1981 103.969 20.3127H105.698C105.828 20.1981 105.964 20.0887 106.089 19.9637C106.151 19.9064 106.214 19.8491 106.276 19.7918ZM105.198 20.7085H104.469C104.49 20.7241 104.51 20.7397 104.531 20.7554C104.63 20.8283 104.734 20.896 104.833 20.9689C104.932 20.896 105.036 20.8283 105.135 20.7554C105.156 20.7397 105.177 20.7241 105.198 20.7085ZM105.188 2.32829C105.896 2.82829 106.547 3.40641 107.125 4.04704C107.745 4.73454 108.281 5.50016 108.724 6.32829C109.167 7.1512 109.51 8.03141 109.74 8.9585C109.964 9.85433 110.083 10.797 110.083 11.7658C110.083 12.7293 109.964 13.672 109.74 14.5731C109.51 15.5002 109.167 16.3804 108.724 17.2033C108.281 18.0314 107.745 18.7918 107.125 19.4793C106.547 20.1252 105.896 20.6981 105.188 21.1981C105.583 21.4481 105.99 21.672 106.411 21.87C106.885 22.0887 107.38 22.2814 107.891 22.4325C108.411 22.5939 108.943 22.7085 109.484 22.7918C110.021 22.87 110.568 22.9116 111.125 22.9116C112.635 22.9116 114.073 22.6147 115.385 22.0679C116.755 21.5054 117.979 20.6772 119.005 19.646C120.036 18.62 120.865 17.3908 121.427 16.0262C121.974 14.7137 122.271 13.2762 122.271 11.7658C122.271 10.2554 121.974 8.81266 121.427 7.50537C120.865 6.13558 120.036 4.91162 119.005 3.88037C117.979 2.85433 116.755 2.0262 115.385 1.4637C114.073 0.91683 112.635 0.619954 111.125 0.619954C110.568 0.619954 110.021 0.661621 109.484 0.739746C108.943 0.81787 108.411 0.937663 107.891 1.09391C107.38 1.25016 106.885 1.44287 106.411 1.66162C105.99 1.85433 105.583 2.07829 105.188 2.32829ZM104.474 21.1981C103.771 20.6981 103.12 20.1252 102.542 19.4793C101.922 18.7918 101.38 18.0314 100.938 17.2033C100.5 16.3804 100.156 15.5002 99.9271 14.5731C99.7031 13.672 99.5833 12.7293 99.5833 11.7658C99.5833 10.797 99.7031 9.85433 99.9271 8.9585C100.156 8.03141 100.5 7.1512 100.938 6.32829C101.38 5.50016 101.922 4.73454 102.542 4.04704C103.12 3.40641 103.771 2.82829 104.474 2.32829C104.083 2.07829 103.677 1.85433 103.255 1.66162C102.781 1.44287 102.286 1.25016 101.776 1.09391C101.255 0.937663 100.724 0.81787 100.177 0.739746C99.6458 0.661621 99.0937 0.619954 98.5417 0.619954C97.0313 0.619954 95.5937 0.91683 94.2813 1.4637C92.9115 2.0262 91.6875 2.85433 90.6563 3.88037C89.6302 4.91162 88.8021 6.13558 88.2396 7.50537C87.6927 8.81266 87.3958 10.2554 87.3958 11.7658C87.3958 13.2762 87.6927 14.7137 88.2396 16.0262C88.8021 17.3908 89.6302 18.62 90.6563 19.646C91.6875 20.6772 92.9115 21.5054 94.2813 22.0679C95.5937 22.6147 97.0313 22.9116 98.5417 22.9116C99.0937 22.9116 99.6458 22.87 100.177 22.7918C100.724 22.7085 101.255 22.5939 101.776 22.4325C102.286 22.2814 102.781 22.0887 103.255 21.87C103.677 21.672 104.083 21.4481 104.474 21.1981Z" fill="#C78E66"/>
</g>
</svg>
